<svg width="32" height="32" viewBox="0 0 32 32" fill="none" xmlns="http://www.w3.org/2000/svg">
<g clip-path="url(#clip0_1_93)">
<path d="M21.1046 19.6472L21.7476 11.081L13.1849 10.3935C13.0966 10.3745 13.0053 10.3747 12.9171 10.394C12.8289 10.4134 12.7458 10.4515 12.6736 10.5057C12.6014 10.56 12.5417 10.6291 12.4985 10.7084C12.4553 10.7877 12.4297 10.8754 12.4233 10.9655C12.417 11.0556 12.4301 11.146 12.4617 11.2306C12.4933 11.3152 12.5427 11.392 12.6066 11.4558C12.6705 11.5196 12.7474 11.569 12.832 11.6005C12.9166 11.6321 13.0071 11.6451 13.0971 11.6386L19.5128 12.1638L10.3502 20.0056C10.2232 20.1143 10.1445 20.2691 10.1316 20.4358C10.1186 20.6025 10.1724 20.7675 10.2812 20.8945C10.3899 21.0215 10.5446 21.1002 10.7113 21.1131C10.878 21.1261 11.043 21.0723 11.17 20.9636L20.3327 13.1218L19.8608 19.5416C19.8485 19.7084 19.9029 19.8734 20.0121 20.0001C20.1214 20.1268 20.2764 20.2049 20.4433 20.2173C20.6101 20.2297 20.775 20.1752 20.9018 20.066C21.0285 19.9568 21.1066 19.8017 21.119 19.6349L21.1046 19.6472Z" fill="black"/>
</g>
<defs>
<clipPath id="clip0_1_93">
<rect width="22.1526" height="22.1526" fill="white" transform="translate(17.2428) scale(1.02451) rotate(49.4416)"/>
</clipPath>
</defs>
</svg>
